<?xml version="1.0" encoding="UTF-8" standalone="no"?> <svg id="Layer_1" data-name="Layer 1" xmlns="http://www.w3.org/2000/svg" viewBox="0 0 128 128"><defs><style>.cls-1{fill:#2d3e50;}.cls-2{fill:#1d75b8;}</style></defs><title>b</title><path class="cls-1" d="M104.41369,79.55578,71.10483,93.53756l-2.9686.858a14.53859,14.53859,0,0,1-3.23787.55113c-2.37987.12838-5.84634.19728-6.4476.238H38.88882a1.40273,1.40273,0,0,1-.87678-.31,1.69039,1.69039,0,0,1-.81733-1.42792,1.76181,1.76181,0,0,1,1.8131-1.70661H61.1751a5.56715,5.56715,0,0,0,5.53009-4.91008,5.12979,5.12979,0,0,0,.04071-.66072,5.57111,5.57111,0,0,0-4.4936-5.46744C49.87695,78.26877,37.62685,75.344,24.91958,76.16445c-.49477.03134-4.9539.21294-7.315.429v32.90806l.12212,2.74626c4.41245.53776,34.20669,4.18273,34.69418,4.26928,4.7261.83913,9.45024.61455,13.954-2.06984a.70929.70929,0,0,1,.06576-.03758s29.88774-16.867,42.98332-25.41889a5.36362,5.36362,0,0,0-5.01027-9.435Z"/><rect class="cls-1" x="1.95675" y="72.75492" width="12.01133" height="39.51749"/><path class="cls-2" d="M126.04325,20.46087c-.61977-.41718-5.86372,3.063-6.45962,3.38472A167.90525,167.90525,0,0,0,101.3965,35.60881c-6.44777,4.76726-12.58558,11.93009-20.59462,14.0277a15.9025,15.9025,0,0,1-14.409-3.46815A31.17082,31.17082,0,0,0,62.007,54.964v10.6667a3.22984,3.22984,0,0,1-3.22984,3.22984h0a3.22984,3.22984,0,0,1-3.22984-3.22984V56.23915a23.6577,23.6577,0,0,0-4.35009-6.29275A12.10993,12.10993,0,0,1,40.733,54.1654c-6.269-.6912-11.67978-5.39889-17.07875-8.27121A125.09465,125.09465,0,0,0,8.64935,39.06511c-.47676-.1788-4.815-2.21676-5.23209-1.82351,4.31437-4.219,9.9755-6.85294,15.63662-8.736,11.27461-3.75425,29.24722-5.41089,34.55074,8.23542a13.45441,13.45441,0,0,1,.96537,5.1248c-.01186.46483-.98916,4.45745-1.00108,4.46931a29.38778,29.38778,0,0,1,3.82568,4.57661l.16687-.39332a1.08781,1.08781,0,0,1,.05958.11923,37.72764,37.72764,0,0,1,4.99371-8.71217c-.01186,0-2.04989-5.00564-2.15718-5.61348a17.40556,17.40556,0,0,1,.26224-6.841c4.27858-18.74732,27.94811-20.05829,43.31056-17.35284C111.76532,13.4887,119.61935,15.81276,126.04325,20.46087Z"/></svg>