<?xml version="1.0" encoding="UTF-8" standalone="no"?>
<svg
   xmlns:dc="http://purl.org/dc/elements/1.1/"
   xmlns:cc="http://creativecommons.org/ns#"
   xmlns:rdf="http://www.w3.org/1999/02/22-rdf-syntax-ns#"
   xmlns:svg="http://www.w3.org/2000/svg"
   xmlns="http://www.w3.org/2000/svg"
   xmlns:sodipodi="http://sodipodi.sourceforge.net/DTD/sodipodi-0.dtd"
   xmlns:inkscape="http://www.inkscape.org/namespaces/inkscape"
   width="64"
   height="64"
   viewBox="0 0 16.933333 16.933334"
   version="1.1"
   id="svg8"
   inkscape:version="0.92.3 (2405546, 2018-03-11)"
   sodipodi:docname="20-Creativity.svg"
   inkscape:export-filename="/home/wanzabuyumna/@WANZ_DESIGN/NICON STUDIO MAGANG/Style Line/Style Line/Icon 8/Icon 8.png"
   inkscape:export-xdpi="96"
   inkscape:export-ydpi="96">
  <defs
     id="defs2" />
  <sodipodi:namedview
     id="base"
     pagecolor="#ffffff"
     bordercolor="#959595"
     borderopacity="1"
     inkscape:pageopacity="0"
     inkscape:pageshadow="2"
     inkscape:zoom="7.919596"
     inkscape:cx="14.74511"
     inkscape:cy="34.52114"
     inkscape:document-units="px"
     inkscape:current-layer="layer1"
     inkscape:document-rotation="0"
     showgrid="false"
     units="px"
     inkscape:window-width="1920"
     inkscape:window-height="1040"
     inkscape:window-x="0"
     inkscape:window-y="0"
     inkscape:window-maximized="1"
     inkscape:pagecheckerboard="0" />
  <metadata
     id="metadata5">
    <rdf:RDF>
      <cc:Work
         rdf:about="">
        <dc:format>image/svg+xml</dc:format>
        <dc:type
           rdf:resource="http://purl.org/dc/dcmitype/StillImage" />
      </cc:Work>
    </rdf:RDF>
  </metadata>
  <g
     inkscape:label="20-Creativity"
     inkscape:groupmode="layer"
     id="layer1">
    <path
       style="color:#000000;font-style:normal;font-variant:normal;font-weight:normal;font-stretch:normal;font-size:medium;line-height:normal;font-family:sans-serif;font-variant-ligatures:normal;font-variant-position:normal;font-variant-caps:normal;font-variant-numeric:normal;font-variant-alternates:normal;font-feature-settings:normal;text-indent:0;text-align:start;text-decoration:none;text-decoration-line:none;text-decoration-style:solid;text-decoration-color:#000000;letter-spacing:normal;word-spacing:normal;text-transform:none;writing-mode:lr-tb;direction:ltr;text-orientation:mixed;dominant-baseline:auto;baseline-shift:baseline;text-anchor:start;white-space:normal;shape-padding:0;clip-rule:nonzero;display:inline;overflow:visible;visibility:visible;opacity:1;isolation:auto;mix-blend-mode:normal;color-interpolation:sRGB;color-interpolation-filters:linearRGB;solid-color:#000000;solid-opacity:1;vector-effect:none;fill:#000000;fill-opacity:1;fill-rule:nonzero;stroke:none;stroke-width:0.529167;stroke-linecap:round;stroke-linejoin:miter;stroke-miterlimit:4;stroke-dasharray:none;stroke-dashoffset:0;stroke-opacity:1;color-rendering:auto;image-rendering:auto;shape-rendering:auto;text-rendering:auto;enable-background:accumulate"
       d="m 1.1907334,3.48e-6 c -0.118984,0.002 -0.22317482,0.0798 -0.25475992,0.19274992 C 0.814362,0.62761322 0.52453109,0.94931306 0.17789507,1.071773 c -0.23719347,0.0823 -0.23719347,0.4179598 0,0.5002298 0.34651024,0.1229198 0.6358391,0.4455698 0.75704491,0.8805596 0.0355233,0.1273799 0.14560752,0.1916499 0.25372642,0.1932699 v 5.212e-4 c 7.064e-4,0 0.00136,-5.027e-4 0.00207,-5.212e-4 7.065e-4,1e-5 0.00136,5.212e-4 0.00207,5.212e-4 v -5.212e-4 c 0.1081221,-0.002 0.2182045,-0.0659 0.2537284,-0.1932699 0.1212058,-0.4349898 0.4105347,-0.7576398 0.7570448,-0.8805596 0.2371935,-0.0823 0.2371935,-0.4179599 0,-0.5002298 C 1.8569298,0.94931306 1.5671045,0.62761322 1.4454932,0.1927534 1.4139078,0.07978344 1.309717,0.00187348 1.1907334,3.48e-6 Z m 14.5517996,5.2e-4 c -0.118984,0.002 -0.223175,0.0798 -0.25476,0.19274992 -0.121612,0.43485984 -0.411442,0.75655968 -0.758078,0.8790196 -0.237195,0.0823 -0.237195,0.4179598 0,0.5002198 0.34651,0.1229198 0.63584,0.4455799 0.757045,0.8805697 0.03552,0.1273699 0.145607,0.1916497 0.253726,0.1932697 v 5.291e-4 c 7.14e-4,0 0.0014,-5.027e-4 0.0021,-5.291e-4 7.14e-4,1e-5 0.0014,5.291e-4 0.0021,5.291e-4 v -5.291e-4 c 0.108123,-0.002 0.218203,-0.0659 0.253727,-0.1932697 0.121206,-0.4349898 0.410535,-0.7576499 0.757045,-0.8805697 0.237194,-0.0823 0.237194,-0.4179599 0,-0.5002198 C 16.408601,0.94983308 16.118905,0.62813324 15.997293,0.1932734 15.965713,0.08030344 15.861516,0.00238348 15.742533,5.2348e-4 Z M 7.4083323,16.140611 c 0,0.43515 0.3508381,0.792719 0.793218,0.792719 h 0.5301901 c 0.4423796,0 0.7932176,-0.357569 0.7932176,-0.792719 l 2.646e-4,-0.26561 c 0.4426307,0 0.7934824,-0.35757 0.7934824,-0.79272 v -0.26562 c 0.352855,0 0.352855,-0.52916 0,-0.52916 v -0.529169 c 0.306024,0 0.345713,-0.39714 0.120922,-0.50281 0.01274,-0.12226 0.05994,-0.25085 0.134355,-0.38913 0.746405,0.44507 1.43913,0.75895 2.023093,0.89297 0.454053,0.10421 0.839627,0.10528 1.154429,-0.0331 0.337455,-0.14829 0.525766,-0.4343 0.587032,-0.78289 0.115528,-0.65734 -0.197486,-1.624749 -0.885199,-2.802419 -0.175861,-0.3116096 -0.641894,-0.0399 -0.457328,0.26665 0.659135,1.12873 0.903551,1.972359 0.820605,2.444299 -0.03212,0.18272 -0.1181,0.32091 -0.278013,0.39119 -0.159912,0.0703 -0.433561,0.0901 -0.821639,10e-4 -0.517722,-0.11883 -1.147903,-0.40139 -1.840678,-0.81132 0.182824,-0.23035 0.397362,-0.47721 0.629406,-0.761189 0.579857,-0.70966 1.193185,-1.61702 1.193185,-2.9703692 0,-0.4809196 -0.0763,-0.9405593 -0.213936,-1.3709695 0.618286,-0.7775734 1.131898,-1.5284832 1.518741,-2.2158829 0.621593,-1.1045295 0.93811,-2.0754993 0.766347,-2.7388489 -0.09145,-0.3530398 -0.326407,-0.6144998 -0.683692,-0.7249897 -0.166584,-0.0515 -0.347424,-0.0694 -0.542074,-0.0599 -0.194651,0.009 -0.402981,0.0467 -0.624756,0.1059398 -0.8871,0.23711 -2.010844,0.8476198 -3.2870745,1.7952392 -0.2835696,0.2099101 0.03165,0.6352098 0.3152198,0.4252902 1.2432727,-0.9231395 2.3364397,-1.5045596 3.1087937,-1.7109996 0.386177,-0.1032299 0.686774,-0.1076499 0.872798,-0.0501 0.186025,0.0575 0.281238,0.1739101 0.328656,0.3508801 0.117106,0.4370497 -0.1077,1.2677895 -0.715704,2.3481788 C 13.212193,5.4414412 12.776528,6.0874109 12.257543,6.7603606 11.598672,5.4173911 10.242039,4.4988417 8.467161,4.4984816 6.6918838,4.498852 5.3354669,5.4174512 4.6767515,6.7608807 4.1573723,6.0875008 3.7212657,5.4412811 3.3910728,4.8545314 2.7830587,3.7741119 2.5582605,2.9434221 2.675368,2.5063625 c 0.04742,-0.1769801 0.1426284,-0.29336 0.3286559,-0.35089 0.1860272,-0.0575 0.4866153,-0.0531 0.872798,0.0501 0.7723656,0.20646 1.8655019,0.7878397 3.1087931,1.7110093 C 7.2691885,4.1265017 7.5844086,3.701202 7.300835,3.4912819 6.024585,2.5436425 4.9008753,1.9331626 4.0137615,1.6960426 3.791983,1.6367427 3.5836593,1.5995428 3.3890056,1.5900928 3.1943519,1.5810828 3.0135174,1.5980828 2.8469307,1.6499828 2.4896405,1.7604627 2.254688,2.0219227 2.1632647,2.3750025 1.9914991,3.0383721 2.3080094,4.0092818 2.9296112,5.1138513 3.3166516,5.8016111 3.8306801,6.5527608 4.4493852,7.3307708 4.3119432,7.7609203 4.2354492,8.2206502 4.235449,8.7012302 c 8e-7,1.3533488 0.6133269,2.2607088 1.1931856,2.9703588 0.2319391,0.283849 0.4466252,0.530409 0.6294065,0.760679 -0.6931475,0.41022 -1.3237567,0.69295 -1.841712,0.81183 -0.388072,0.0891 -0.6617292,0.0692 -0.8216392,-10e-4 -0.1599136,-0.0703 -0.2459,-0.20847 -0.2780138,-0.39119 -0.082942,-0.471936 0.1614823,-1.315615 0.8206057,-2.444305 0.1845636,-0.30652 -0.281469,-0.5782498 -0.4573275,-0.26665 -0.6877026,1.17763 -1.0007263,2.145099 -0.8851998,2.802419 0.061265,0.34858 0.249582,0.6346 0.5870329,0.78289 0.314797,0.13834 0.7003828,0.13728 1.1544287,0.0331 0.584305,-0.1341 1.2777351,-0.448 2.0246433,-0.89348 0.075866,0.13854 0.1210066,0.26683 0.1338392,0.38912 -0.2260092,0.1049 -0.1866276,0.50333 0.1198869,0.50333 v 0.529169 c -0.3528526,0 -0.3528526,0.52916 0,0.52916 v 0.26562 c 0,0.43515 0.350838,0.79272 0.7934822,0.79272 z M 8.4666321,2.9109321 c -0.1323192,0 -0.2645775,0.0882 -0.2645775,0.2645897 v 0.52916 c -6e-7,0.3528597 0.5291563,0.3528597 0.5291563,0 v -0.52916 c 0,-0.1764298 -0.1322583,-0.2645897 -0.2645788,-0.2645897 z m -4.115947,2.0789492 0.3741303,0.37465 C 4.9743196,5.6140411 5.3484497,5.239381 5.0989453,4.9898813 L 4.7248154,4.6157415 c -0.062376,-0.0624 -0.1326758,-0.0861 -0.1989505,-0.082185 -0.1988238,0.011716 -0.3623077,0.269195 -0.1751798,0.4563248 z m 7.8577659,-0.37411 -0.374647,0.3741402 c -0.249505,0.2495098 0.124626,0.6241598 0.37413,0.3746598 l 0.374647,-0.3746598 c 0.187127,-0.18713 0.02313,-0.4446101 -0.175697,-0.45632 -0.06628,-0.00402 -0.136057,0.01978 -0.198433,0.08218 z M 11.887522,7.2264305 C 11.569837,7.6162104 11.228313,8.0121401 10.860215,8.4098199 10.085651,9.2466396 9.2698867,10.016599 8.4655706,10.690819 7.6619572,10.016399 6.8466793,9.2451497 6.0730271,8.4093098 5.7053769,8.0121001 5.3641192,7.6168004 5.0467533,7.2274705 5.5776085,5.927321 6.8193349,5.0285012 8.4671372,5.028121 10.114499,5.0284915 11.356426,5.9268508 11.887522,7.2264305 Z M 1.3199219,5.5567712 c -0.1183307,5.292e-4 -0.2223962,0.0793 -0.254243,0.19327 -0.14086222,0.4975897 -0.48028319,0.8701595 -0.89036767,1.0133695 -0.23347575,0.0839 -0.23347575,0.4142497 0,0.4981599 0.41026447,0.1426599 0.75110165,0.5164299 0.89243467,1.0138891 0.074396,0.2534801 0.4336059,0.2534801 0.5079693,0 0.140862,-0.4975992 0.4802622,-0.8706892 0.8903676,-1.0138891 0.2371755,-0.0823 0.2371755,-0.4179599 0,-0.50023 C 2.0558164,6.6186908 1.7170452,6.2474909 1.5757152,5.7500412 1.5437168,5.6353612 1.4389957,5.5563212 1.3199219,5.5567712 Z m 14.2882551,0 c -0.118331,5.292e-4 -0.222397,0.0793 -0.254244,0.19327 -0.140862,0.4975897 -0.480283,0.8701595 -0.890367,1.0133695 -0.233477,0.0839 -0.233477,0.4142497 0,0.4981599 0.410264,0.1426599 0.751102,0.5164299 0.892434,1.0138891 0.0744,0.2534801 0.433608,0.2534801 0.50797,0 0.140863,-0.4975992 0.480264,-0.8706892 0.890368,-1.0138891 0.237176,-0.0823 0.237176,-0.4179599 0,-0.50023 -0.410266,-0.1426498 -0.749037,-0.5138497 -0.890368,-1.0112994 -0.032,-0.11468 -0.136719,-0.19372 -0.255793,-0.19327 z M 8.4666321,5.557274 c -0.6499514,0 -1.2849918,0.1979699 -1.817941,0.5699897 -0.2996039,0.2012413 0.012356,0.6477469 0.3043685,0.4356397 0.4441669,-0.3100597 0.9718937,-0.4764596 1.5135725,-0.4764596 0.3600675,0.00736 0.3600675,-0.5365348 0,-0.5291698 z M 6.0854292,6.8796805 c -0.1461278,-2.4e-6 -0.2645865,0.1184616 -0.2645783,0.26459 -2.4e-6,0.1461243 0.1184544,0.264582 0.2645783,0.2645799 0.1461235,2.3e-6 0.2645807,-0.1184556 0.2645783,-0.2645799 8.2e-6,-0.1461284 -0.1184508,-0.2645924 -0.2645783,-0.26459 z m 6.0863358,1.8215994 c 0,1.1575397 -0.522351,1.9584691 -1.076399,2.6365291 -0.233412,0.28566 -0.470245,0.54807 -0.675399,0.811319 -0.4935777,-0.318929 -1.0119252,-0.694939 -1.539929,-1.117759 0.8085693,-0.68351 1.615744,-1.4514393 2.368286,-2.2644592 0.289977,-0.31329 0.56546,-0.6252496 0.825772,-0.9348296 0.06185,0.2788198 0.09767,0.5684597 0.09767,0.8691997 z M 4.8602049,7.8326097 c 0.2600452,0.3092196 0.5351026,0.6213896 0.8247398,0.9343094 0.7518286,0.8122597 1.5586078,1.5807789 2.3667345,2.2644589 -0.5269688,0.42155 -1.0450727,0.79879 -1.5378605,1.11724 C 6.3087645,11.885558 6.0721794,11.623269 5.8389372,11.337819 5.2848905,10.659758 4.7625384,9.8588286 4.7625384,8.7012892 c 0,-0.3005601 0.035889,-0.5900098 0.097666,-0.8686795 z M 2.9104913,8.4671893 c -0.3528525,0 -0.3528525,0.5286496 0,0.5286496 h 0.5291564 c 0.3528523,0 0.3528523,-0.5286496 0,-0.5286496 z m 10.5826107,0 c -0.352853,0 -0.352853,0.5286496 0,0.5286496 h 0.529672 c 0.352853,0 0.352853,-0.5286496 0,-0.5286496 z M 8.4666321,11.375529 c 0.5623761,0.45476 1.119932,0.862559 1.6567159,1.210259 -0.113792,0.20182 -0.1972697,0.4133 -0.2154877,0.64338 H 7.0264388 c -0.018235,-0.23028 -0.1004768,-0.4426 -0.2149699,-0.64441 0.5360617,-0.34732 1.0938033,-0.755579 1.6551632,-1.209229 z m 4.2037969,0.998389 c 0.277361,0.21812 0.604467,-0.19787 0.327105,-0.41599 l -0.415986,-0.327119 c -0.06934,-0.0545 -0.141877,-0.0696 -0.207219,-0.05789 -0.19603,0.03522 -0.327907,0.310295 -0.119887,0.473887 z m -8.31716,-0.741079 -0.4159872,0.327629 c -0.2772405,0.21827 0.049864,0.63426 0.3271057,0.41599 l 0.4159869,-0.32766 c 0.2079311,-0.163709 0.076161,-0.438769 -0.1198869,-0.473869 -0.065349,-0.01169 -0.1379082,0.003 -0.2072185,0.05791 z m -2.5005735,1.069159 c -0.1190529,-5.29e-4 -0.2237242,0.0786 -0.2557933,0.19327 -0.2230252,0.81733 -0.76324622,1.435339 -1.42159097,1.673799 -0.23350245,0.0839 -0.23350245,0.41477 0,0.49868 0.65861455,0.23756 1.19986007,0.85462 1.42365797,1.671729 0.071995,0.25808 0.4380697,0.25808 0.5100364,0 0.2230252,-0.817329 0.7632407,-1.435349 1.4215907,-1.673799 0.2335131,-0.0839 0.2335131,-0.41476 0,-0.49868 -0.6586095,-0.23759 -1.1998813,-0.854619 -1.4236578,-1.671729 -0.0319,-0.114 -0.1358806,-0.19285 -0.254243,-0.19327 z m 13.2273585,0 c -0.119053,-5.29e-4 -0.223725,0.0786 -0.255793,0.19327 -0.223027,0.81733 -0.763246,1.435339 -1.421592,1.673799 -0.233502,0.0839 -0.233502,0.41477 0,0.49868 0.658616,0.23756 1.19986,0.85462 1.423659,1.671729 0.072,0.25808 0.438069,0.25808 0.510036,0 0.223024,-0.817329 0.763242,-1.435349 1.421591,-1.673799 0.233513,-0.0839 0.233513,-0.41476 0,-0.49868 -0.658608,-0.23755 -1.199883,-0.854619 -1.423658,-1.671729 -0.0319,-0.114 -0.13588,-0.19285 -0.254243,-0.19327 z"
       id="path12033"
       inkscape:connector-curvature="0"
       sodipodi:nodetypes="ccccccccccccccccccccccccccccccccccccccccccccccccccccccccccccccccccccccccccccccccccccccccccccccccccccccccccccccccccccccccccccccccccccccccccccccccccccccccccccccccccccccccccccccccccccccccccccccccccccccccccccccccccccccc" />
  </g>
</svg>
